<svg xmlns="http://www.w3.org/2000/svg" width="521.157" height="499.541" viewBox="0 0 521.157 499.541"><path d="M3757.029,861.155c-40.251,15.792-251.868,114.58-269.8,75.168s94.28-120.182,86.693-98.527c-7.634,21.78-139.989,127.221-142.388,104.525s166.29-172.9,150.768-154.974c0,0-143.391,114.2-190.225,78.542-51.231-39-45.989-272.049-136.291-279.707-59.81-5.072,32.541,229.984,148.8,212.408,40.227-6.082,79.61-51,128.145-146.592,46.613-91.807,115.182-124.079,151.752-136.707,10.667-3.683,12.761,3.244,8.956,6.778-18.817,17.457-49.319,50.38-61.978,90.066-18.871,59.143.061,130.6,38.267,87.581,57.7-64.979-239.406-19.881-257.192-99.722-12.836-57.635,82.992-131.209,194.858-150.07,109.085-18.393,46.712,56.881-24.963,53.33" transform="translate(-3236.52 -446.47)" fill="none" stroke="#fff" stroke-linecap="round" stroke-linejoin="round" stroke-width="1" style="stroke-dashoffset: 0px;"></path></svg>