<svg xmlns="http://www.w3.org/2000/svg" width="56" height="56" viewBox="0 0 56 56"><path d="M16.8-64q4.96,0,7.6-3.12a10.313,10.313,0,0,0,2.64-6.8l-1.44-.32a28.66,28.66,0,0,1-3.44-.64,16.1,16.1,0,0,1-3.92-1.52,9.357,9.357,0,0,1-3.36-3.28,9.85,9.85,0,0,1-1.44-5.44,16.017,16.017,0,0,1,3.6-9.84,28.4,28.4,0,0,1,9.84-7.92l-.64-.8q-10.88,4-17.04,10.8T3.04-78.56A14.929,14.929,0,0,0,6.8-68.16,12.824,12.824,0,0,0,16.8-64Z" transform="translate(-1.04 112)" fill="#fff"></path><path d="M16.8-64q4.96,0,7.6-3.12a10.313,10.313,0,0,0,2.64-6.8l-1.44-.32a28.66,28.66,0,0,1-3.44-.64,16.1,16.1,0,0,1-3.92-1.52,9.357,9.357,0,0,1-3.36-3.28,9.85,9.85,0,0,1-1.44-5.44,16.017,16.017,0,0,1,3.6-9.84,28.4,28.4,0,0,1,9.84-7.92l-.64-.8q-10.88,4-17.04,10.8T3.04-78.56A14.929,14.929,0,0,0,6.8-68.16,12.824,12.824,0,0,0,16.8-64Z" transform="translate(26.96 112)" fill="#fff"></path><rect width="56" height="56" fill="none"></rect></svg>