<svg xmlns="http://www.w3.org/2000/svg" width="16" height="16" viewBox="0 0 16 16">
  <g transform="translate(0 0)">
    <path d="M16.409,4.7a5.845,5.845,0,0,0-.372-1.941A4.1,4.1,0,0,0,13.695.422,5.864,5.864,0,0,0,11.754.05C10.9.009,10.625,0,8.452,0s-2.445.009-3.3.047A5.85,5.85,0,0,0,3.213.419a3.9,3.9,0,0,0-1.419.925A3.939,3.939,0,0,0,.871,2.76,5.861,5.861,0,0,0,.5,4.7C.459,5.557.449,5.829.449,8S.459,10.446.5,11.3A5.845,5.845,0,0,0,.868,13.24,4.1,4.1,0,0,0,3.21,15.581a5.864,5.864,0,0,0,1.941.372C6,15.991,6.277,16,8.449,16s2.445-.009,3.3-.047a5.847,5.847,0,0,0,1.941-.372A4.093,4.093,0,0,0,16.03,13.24,5.865,5.865,0,0,0,16.4,11.3c.037-.853.047-1.125.047-3.3S16.446,5.557,16.409,4.7Zm-1.441,6.533a4.385,4.385,0,0,1-.275,1.485,2.654,2.654,0,0,1-1.519,1.519,4.4,4.4,0,0,1-1.485.275c-.844.038-1.1.047-3.232.047s-2.392-.009-3.233-.047a4.385,4.385,0,0,1-1.485-.275,2.463,2.463,0,0,1-.919-.6,2.487,2.487,0,0,1-.6-.919,4.4,4.4,0,0,1-.275-1.485c-.038-.844-.047-1.1-.047-3.232s.009-2.391.047-3.232a4.382,4.382,0,0,1,.275-1.485,2.432,2.432,0,0,1,.6-.919,2.484,2.484,0,0,1,.919-.6A4.406,4.406,0,0,1,5.226,1.5c.844-.037,1.1-.047,3.232-.047s2.392.009,3.233.047a4.387,4.387,0,0,1,1.485.275,2.461,2.461,0,0,1,.919.6,2.487,2.487,0,0,1,.6.919,4.4,4.4,0,0,1,.275,1.485c.037.844.047,1.1.047,3.232S15,10.393,14.967,11.237Zm0,0" transform="translate(-0.449 0)"></path>
    <path d="M129.283,124.5a4.33,4.33,0,1,0,4.334,4.33A4.333,4.333,0,0,0,129.283,124.5Zm0,7.138a2.808,2.808,0,1,1,2.811-2.809A2.81,2.81,0,0,1,129.283,131.638Zm0,0" transform="translate(-121.279 -120.827)"></path>
    <path d="M364.281,89.517a.916.916,0,1,1-.916-.916A.916.916,0,0,1,364.281,89.517Zm0,0" transform="translate(-351.036 -85.841)"></path>
  </g>
</svg>