<?xml version="1.0" encoding="UTF-8"?>
<svg xmlns="http://www.w3.org/2000/svg" width="160" height="51" viewBox="0 0 160 51" fill="none">
  <g clip-path="url(#clip0_13_9)">
    <path d="M158.549 1.45074H1.45072V40.9394H158.549V1.45074Z" fill="white" stroke="white" stroke-width="2"></path>
    <path d="M75.7102 50.7723C74.7179 50.7723 74.2015 50.1297 74.2015 49.0228V46.6915H74.8035V49.0126C74.8035 49.7684 75.1198 50.1732 75.7218 50.1732C76.3529 50.1732 76.6517 49.7844 76.6517 49.0489V46.6915H77.2538V49.0344C77.2538 50.1587 76.7083 50.7752 75.7102 50.7752" fill="black"></path>
    <path d="M81.0112 50.7099L79.4154 48.19C79.3153 48.045 79.1789 47.8013 79.1136 47.6968C79.1136 47.8419 79.1136 48.4033 79.1136 48.6282V50.7114H78.5333V46.6929H79.1484L80.6746 49.1432C80.7776 49.3071 80.9488 49.6074 81.0068 49.7104C81.0068 49.5653 81.0068 48.985 81.0068 48.7631V46.6915H81.5871V50.7099H81.0112Z" fill="black"></path>
    <path d="M85.5418 50.7114L85.2008 49.7583H83.5949L83.2612 50.7114H82.636L84.0867 46.6929H84.7236L86.1859 50.7114H85.5418ZM84.6974 48.2945C84.5988 48.0044 84.4378 47.5431 84.3942 47.369C84.3464 47.5416 84.2027 48.0015 84.1041 48.2989L83.7835 49.2157H85.0224L84.6974 48.2945Z" fill="black"></path>
    <path d="M89.0728 50.7099V46.6915H91.658V47.2717H89.6749V48.2626H90.8267V48.8429H89.6749V50.1093H91.745V50.6896L89.0728 50.7099Z" fill="black"></path>
    <path d="M95.8651 50.7099V48.5846C95.8651 48.3453 95.8651 47.9942 95.8767 47.8796C95.8288 47.9942 95.7157 48.2815 95.617 48.5107L94.6421 50.7723L93.6789 48.5107C93.5802 48.28 93.4641 47.9942 93.4206 47.8796C93.4206 47.9942 93.4322 48.3453 93.4322 48.5846V50.7099H92.8621V46.6915H93.4816L94.3839 48.8298C94.4796 49.0605 94.6073 49.355 94.6595 49.5204C94.7161 49.355 94.8307 49.0648 94.9279 48.8298L95.8071 46.6915H96.4483V50.7099H95.8651Z" fill="black"></path>
    <path d="M99.4034 49.2099H98.3531V50.7099H97.7612V46.6915H99.4426C99.6133 46.675 99.7856 46.696 99.9475 46.7529C100.109 46.8098 100.257 46.9013 100.38 47.021C100.503 47.1407 100.598 47.2858 100.659 47.4461C100.72 47.6064 100.746 47.7781 100.734 47.9492C100.744 48.1236 100.716 48.2982 100.652 48.4606C100.587 48.623 100.488 48.7694 100.361 48.8895C100.234 49.0096 100.083 49.1006 99.917 49.1559C99.7513 49.2112 99.5755 49.2297 99.4019 49.2099M99.4324 47.2601H98.3531V48.6427H99.4324C99.5258 48.6532 99.6203 48.6425 99.709 48.6113C99.7976 48.5801 99.878 48.5292 99.9441 48.4625C100.01 48.3958 100.06 48.3149 100.091 48.226C100.121 48.1371 100.131 48.0425 100.12 47.9492C100.129 47.8567 100.117 47.7634 100.086 47.6759C100.054 47.5885 100.004 47.509 99.938 47.4432C99.8724 47.3774 99.793 47.3269 99.7056 47.2953C99.6183 47.2636 99.525 47.2516 99.4324 47.2601Z" fill="black"></path>
    <path d="M103.94 49.0663L104.761 50.71H104.067L103.27 49.1142H102.363V50.71H101.771V46.6915H103.539C103.706 46.6723 103.875 46.6894 104.034 46.7416C104.193 46.7939 104.34 46.8801 104.462 46.9942C104.585 47.1084 104.682 47.2479 104.746 47.4029C104.81 47.558 104.839 47.7251 104.832 47.8927C104.853 48.1625 104.774 48.4306 104.611 48.6467C104.448 48.8628 104.212 49.012 103.947 49.0663M103.539 47.2602H102.37V48.5527H103.539C103.628 48.5641 103.719 48.5556 103.804 48.5278C103.89 48.5 103.968 48.4537 104.033 48.3921C104.098 48.3305 104.149 48.2552 104.182 48.1716C104.215 48.088 104.229 47.9982 104.223 47.9086C104.228 47.8191 104.213 47.7295 104.18 47.6461C104.147 47.5627 104.097 47.4875 104.032 47.4258C103.967 47.364 103.889 47.3172 103.804 47.2886C103.719 47.26 103.629 47.2503 103.539 47.2602Z" fill="black"></path>
    <path d="M106.017 50.7099V46.6915H108.604V47.2717H106.621V48.2626H107.773V48.8429H106.621V50.1093H108.694V50.6896L106.017 50.7099Z" fill="black"></path>
    <path d="M110.935 50.7738C110.664 50.7763 110.396 50.7195 110.149 50.6075C109.902 50.4955 109.683 50.331 109.506 50.1253L109.941 49.7075C110.075 49.8527 110.237 49.9696 110.416 50.0514C110.596 50.1331 110.79 50.178 110.987 50.1834C111.55 50.1834 111.819 49.9861 111.819 49.6031C111.819 49.2926 111.584 49.1388 110.91 48.9401C110.062 48.6862 109.656 48.473 109.656 47.7549C109.663 47.5921 109.704 47.4326 109.776 47.2864C109.848 47.1403 109.949 47.0106 110.074 46.9055C110.198 46.8005 110.343 46.7223 110.5 46.676C110.656 46.6297 110.82 46.6162 110.982 46.6364C111.226 46.6332 111.469 46.68 111.694 46.7738C111.92 46.8675 112.124 47.0064 112.294 47.1818L111.869 47.617C111.75 47.4896 111.605 47.3894 111.444 47.323C111.283 47.2567 111.109 47.2259 110.935 47.2326C110.465 47.2326 110.262 47.4633 110.262 47.7316C110.262 48 110.448 48.1509 111.141 48.3584C111.933 48.5977 112.428 48.8516 112.428 49.5697C112.428 50.2878 111.97 50.7869 110.941 50.7869" fill="black"></path>
    <path d="M116.095 50.7114L115.756 49.7583H114.151L113.818 50.7114H113.19L114.64 46.6929H115.277L116.741 50.7114H116.095ZM115.253 48.2945C115.152 48.0044 114.993 47.5431 114.946 47.369C114.9 47.5416 114.756 48.0015 114.656 48.2989L114.336 49.2157H115.573L115.253 48.2945Z" fill="black"></path>
    <path d="M120.226 47.2833V48.3322H121.386V48.9241H120.226V50.7099H119.624V46.6915H122.213V47.2833H120.226Z" fill="black"></path>
    <path d="M123.226 50.7099V46.6915H125.814V47.2717H123.826V48.2626H124.987V48.8429H123.826V50.1093H125.899V50.6896L123.226 50.7099Z" fill="black"></path>
    <path d="M129.197 49.0663L130.018 50.71H129.325L128.525 49.1142H127.62V50.71H127.028V46.6915H128.789C128.956 46.6723 129.125 46.6894 129.284 46.7416C129.443 46.7939 129.589 46.8801 129.712 46.9942C129.835 47.1084 129.932 47.2479 129.996 47.4029C130.059 47.558 130.089 47.7251 130.082 47.8927C130.103 48.1625 130.024 48.4306 129.861 48.6467C129.698 48.8628 129.462 49.012 129.197 49.0663ZM128.789 47.2602H127.62V48.5527H128.789C128.878 48.5643 128.969 48.556 129.055 48.5283C129.14 48.5006 129.218 48.4543 129.284 48.3927C129.349 48.3311 129.4 48.2557 129.433 48.172C129.466 48.0883 129.48 47.9983 129.474 47.9086C129.479 47.819 129.464 47.7294 129.431 47.646C129.398 47.5626 129.347 47.4874 129.282 47.4257C129.217 47.364 129.139 47.3172 129.054 47.2886C128.969 47.26 128.878 47.2503 128.789 47.2602Z" fill="black"></path>
    <path d="M133.305 49.0663L134.123 50.71H133.427L132.629 49.1142H131.723V50.71H131.131V46.6915H132.892C133.059 46.672 133.227 46.689 133.387 46.7411C133.547 46.7933 133.693 46.8794 133.816 46.9936C133.939 47.1078 134.036 47.2473 134.1 47.4025C134.163 47.5577 134.193 47.725 134.186 47.8927C134.206 48.1626 134.127 48.4308 133.964 48.6468C133.801 48.8629 133.565 49.012 133.299 49.0663M132.892 47.2602H131.723V48.5527H132.892C132.981 48.5643 133.072 48.556 133.157 48.5283C133.243 48.5006 133.321 48.4543 133.387 48.3927C133.452 48.3311 133.503 48.2557 133.536 48.172C133.569 48.0883 133.583 47.9983 133.577 47.9086C133.582 47.819 133.567 47.7294 133.534 47.646C133.501 47.5626 133.45 47.4874 133.384 47.4257C133.319 47.364 133.241 47.3172 133.156 47.2886C133.071 47.26 132.981 47.2503 132.892 47.2602Z" fill="black"></path>
    <path d="M135.409 50.7099V46.6915H137.997V47.2717H136.011V48.2626H137.171V48.8429H136.011V50.1093H138.084V50.6896L135.409 50.7099Z" fill="black"></path>
    <path d="M140.866 49.1185V50.7143H140.264V49.1185L138.824 46.6915H139.53L140.154 47.7998C140.292 48.0464 140.498 48.4483 140.569 48.5977C140.637 48.4526 140.837 48.0638 140.981 47.8042L141.612 46.6915H142.307L140.866 49.1185Z" fill="black"></path>
    <path d="M144.544 50.7738C143.505 50.7738 142.847 49.9179 142.847 48.7036C142.847 47.4894 143.505 46.6306 144.544 46.6306C144.82 46.6124 145.095 46.6735 145.338 46.8066C145.58 46.9398 145.779 47.1394 145.912 47.382L145.377 47.7157C145.301 47.5622 145.181 47.4345 145.033 47.3486C144.885 47.2626 144.715 47.2223 144.544 47.2326C143.842 47.2326 143.465 47.8013 143.465 48.7022C143.465 49.6031 143.842 50.1703 144.544 50.1703C144.723 50.1789 144.901 50.1367 145.058 50.0484C145.214 49.9601 145.342 49.8293 145.427 49.6713L145.927 50.0049C145.788 50.2472 145.586 50.4469 145.343 50.5825C145.099 50.718 144.823 50.7842 144.544 50.7738Z" fill="black"></path>
    <path d="M148.459 50.7738C147.418 50.7738 146.761 49.9179 146.761 48.7036C146.761 47.4894 147.418 46.6306 148.459 46.6306C149.501 46.6306 150.163 47.485 150.163 48.7036C150.163 49.9222 149.503 50.7738 148.459 50.7738ZM148.459 47.2326C147.757 47.2326 147.371 47.8013 147.371 48.7022C147.371 49.6031 147.756 50.1703 148.459 50.1703C149.163 50.1703 149.549 49.6031 149.549 48.7022C149.549 47.8013 149.165 47.2326 148.459 47.2326Z" fill="black"></path>
    <path d="M153.473 49.0663L154.294 50.71H153.605L152.807 49.1142H151.899V50.71H151.309V46.6915H153.07C153.237 46.6723 153.405 46.6894 153.565 46.7416C153.724 46.7939 153.87 46.8801 153.993 46.9942C154.116 47.1084 154.212 47.2479 154.276 47.4029C154.34 47.558 154.369 47.7251 154.362 47.8927C154.383 48.1625 154.305 48.4306 154.142 48.6467C153.979 48.8628 153.743 49.012 153.478 49.0663M153.07 47.2602H151.899V48.5527H153.07C153.159 48.5641 153.249 48.5556 153.335 48.5278C153.42 48.5001 153.498 48.4537 153.563 48.3921C153.629 48.3304 153.679 48.2551 153.712 48.1715C153.744 48.0879 153.758 47.9981 153.752 47.9086C153.757 47.8192 153.743 47.7296 153.71 47.6462C153.677 47.5628 153.627 47.4876 153.562 47.4258C153.497 47.364 153.419 47.3172 153.334 47.2886C153.249 47.26 153.159 47.2503 153.07 47.2602Z" fill="black"></path>
    <path d="M157.215 49.2099H156.164V50.7099H155.574V46.6915H157.254C157.425 46.675 157.597 46.696 157.759 46.7529C157.921 46.8098 158.068 46.9013 158.191 47.021C158.314 47.1407 158.409 47.2858 158.47 47.4461C158.531 47.6064 158.557 47.7781 158.545 47.9492C158.555 48.1236 158.527 48.2982 158.463 48.4606C158.398 48.623 158.299 48.7694 158.172 48.8895C158.046 49.0096 157.894 49.1006 157.728 49.1559C157.563 49.2112 157.387 49.2297 157.213 49.2099M157.242 47.2601H156.164V48.6427H157.242C157.336 48.6532 157.43 48.6424 157.519 48.6112C157.608 48.58 157.688 48.5292 157.754 48.4625C157.821 48.3958 157.871 48.315 157.902 48.2261C157.932 48.1372 157.942 48.0426 157.931 47.9492C157.94 47.8566 157.928 47.7631 157.897 47.6755C157.865 47.588 157.815 47.5084 157.749 47.4426C157.683 47.3768 157.603 47.3263 157.516 47.2948C157.428 47.2632 157.335 47.2514 157.242 47.2601Z" fill="black"></path>
    <path d="M119.906 40.9394H1.45072V1.45074H119.906V40.9394ZM74.4989 25.7286L74.5119 26.3553V27.9859V28.276L74.7905 28.3616C75.2599 28.4884 75.7434 28.5562 76.2296 28.5633C77.7775 28.5633 78.4942 27.2141 79.2761 25.45C79.2833 25.4254 82.5576 17.1417 82.591 17.059L82.7926 16.5368H79.7461L79.6562 16.7849L77.9907 21.2429L76.4167 16.7863L76.3253 16.5324H73.1337L73.3484 17.0634L76.5081 24.7334L76.5168 24.7522L76.5241 24.7609C76.5823 24.8939 76.6084 25.0386 76.6003 25.1835C76.5923 25.3284 76.5502 25.4694 76.4776 25.5951C76.3964 25.7347 76.2806 25.851 76.1414 25.9328C76.0021 26.0146 75.8441 26.0592 75.6827 26.0622C75.6174 26.0622 75.5535 26.0622 75.4941 26.0622C75.3612 26.0689 75.2282 26.0552 75.0995 26.0216L74.4989 25.7286ZM21.1907 18.7651V22.904H26.5772V28.2165H31.0744V22.8967H36.6423V18.7578H31.073V16.56H36.6409V12.4153H26.5772V18.7578L21.1907 18.7651ZM101.9 24.568L101.814 27.1459C102.981 27.5058 104.197 27.682 105.418 27.6682C107.992 27.6682 109.467 26.4307 109.467 24.2735C109.52 23.5552 109.319 22.841 108.9 22.2554C108.481 21.6698 107.869 21.2499 107.172 21.0688C105.308 20.3797 104.873 20.152 104.873 19.489C104.873 19.1046 105.261 18.6911 106.114 18.6911C107.038 18.7037 107.949 18.9041 108.792 19.2801L108.875 16.7907C107.885 16.4912 106.856 16.3444 105.821 16.3554C102.576 16.3554 101.71 18.4198 101.71 19.6399C101.679 20.3748 101.885 21.1003 102.299 21.7083C102.713 22.3163 103.313 22.7743 104.008 23.0143C104.308 23.1376 104.588 23.2464 104.832 23.3421C105.752 23.7004 106.307 23.9224 106.307 24.3025C106.307 24.8015 106.178 25.334 104.639 25.334C103.674 25.3225 102.73 25.0557 101.902 24.5607L101.9 24.568ZM95.8201 16.3438C95.1019 16.3109 94.3851 16.4353 93.72 16.7085C93.055 16.9816 92.4576 17.3969 91.9699 17.9251C91.0539 19.0691 90.5852 20.5072 90.6512 21.9712C90.5835 23.4501 91.0518 24.9038 91.9699 26.0651C92.4747 26.5701 93.074 26.9707 93.7337 27.244C94.3933 27.5173 95.1003 27.6579 95.8143 27.6579C96.5283 27.6579 97.2353 27.5173 97.895 27.244C98.5546 26.9707 99.1539 26.5701 99.6587 26.0651C100.575 24.903 101.042 23.4496 100.975 21.9712C101.041 20.5076 100.573 19.0698 99.6587 17.9251C99.1731 17.3974 98.5778 16.9823 97.9146 16.7092C97.2515 16.436 96.5366 16.3113 95.8201 16.3438ZM68.2782 16.3438C67.5849 16.3276 66.8973 16.4734 66.2702 16.7696C65.6431 17.0658 65.0938 17.5041 64.6659 18.0499C63.8192 19.1776 63.3758 20.557 63.4067 21.9668C63.3196 23.4534 63.7968 24.918 64.7428 26.068C65.293 26.6199 65.9552 27.0471 66.6848 27.3209C67.4144 27.5947 68.1942 27.7087 68.9716 27.6551C70.1603 27.6468 71.3384 27.4318 72.4534 27.0197L72.391 24.5172C71.4419 25.0507 70.3788 25.3492 69.2908 25.3876C68.913 25.4077 68.535 25.3502 68.1802 25.2188C67.8255 25.0873 67.5013 24.8846 67.2279 24.6231C66.7927 24.1493 66.5577 23.5254 66.5721 22.8822H73.0394V22.0785C73.0394 19.6471 72.3634 17.9614 71.0316 17.0649C70.2079 16.5527 69.2487 16.3014 68.2796 16.3438H68.2782ZM42.3901 16.3438C41.6965 16.3274 41.0087 16.4731 40.3813 16.7693C39.754 17.0654 39.2044 17.5039 38.7763 18.0499C37.9304 19.1779 37.4875 20.5572 37.5185 21.9668C37.4316 23.4534 37.9088 24.918 38.8547 26.068C39.4046 26.6214 40.0671 27.0501 40.7972 27.3249C41.5274 27.5998 42.3081 27.7144 43.0864 27.6609C44.2752 27.6541 45.4536 27.439 46.5681 27.0255L46.4985 24.5172C45.549 25.0471 44.4878 25.3453 43.4012 25.3876C43.0232 25.4077 42.645 25.3502 42.29 25.2187C41.935 25.0872 41.6106 24.8845 41.3368 24.6231C40.9015 24.1494 40.6665 23.5255 40.6811 22.8822H47.1484V22.0785C47.1484 19.6471 46.4724 17.9614 45.1377 17.0649C44.3151 16.5539 43.3576 16.3027 42.3901 16.3438ZM83.6341 16.5121C83.7023 17.2746 83.7299 18.0403 83.7167 18.8057V27.4941H87.0432V22.5848C87.0029 21.8184 87.125 21.0521 87.4016 20.3362C87.5604 19.9965 87.8203 19.7142 88.1456 19.5278C88.471 19.3413 88.846 19.2599 89.2193 19.2946C89.5956 19.2876 89.9712 19.33 90.3364 19.4208V16.3453H89.8489C89.203 16.3084 88.5628 16.4839 88.0258 16.8448C87.4889 17.2057 87.0847 17.7324 86.875 18.3444L86.7923 18.4895H86.7531C86.7444 18.1355 86.7255 17.7641 86.7067 17.4145C86.6907 17.1243 86.6762 16.811 86.6661 16.5136L83.6341 16.5121ZM56.2778 16.5121C56.3462 17.2746 56.3743 18.0402 56.362 18.8057V27.4941H59.6986V22.5848C59.6585 21.8184 59.7806 21.0522 60.0569 20.3362C60.215 19.9974 60.4736 19.7155 60.7975 19.5288C61.1215 19.3422 61.495 19.2599 61.8674 19.2932C62.2447 19.2859 62.6212 19.3283 62.9874 19.4194V16.3438H62.4971C61.8521 16.3061 61.2126 16.4803 60.6759 16.84C60.1392 17.1996 59.7349 17.7249 59.5245 18.3357L59.4375 18.4895H59.3954C59.3853 18.1485 59.3693 17.7946 59.3533 17.4522C59.3388 17.1417 59.3229 16.8226 59.3142 16.5121H56.2778ZM48.354 16.5121C48.4222 17.2746 48.4498 18.0403 48.4367 18.8057V27.4941H51.7733V22.5848C51.7333 21.8184 51.8554 21.0522 52.1317 20.3362C52.2897 19.9974 52.5483 19.7155 52.8722 19.5288C53.1962 19.3422 53.5698 19.2599 53.9422 19.2932C54.3199 19.2856 54.697 19.3281 55.0636 19.4194V16.3438H54.5761C53.9314 16.3064 53.2921 16.4809 52.7559 16.8408C52.2197 17.2008 51.816 17.7263 51.6065 18.3371L51.5209 18.4822H51.4774C51.4672 18.1688 51.4513 17.8453 51.4353 17.532C51.4179 17.1925 51.4005 16.8443 51.3903 16.5063L48.354 16.5121ZM95.8201 25.3876C94.7002 25.3876 94.1068 24.2067 94.1068 21.9741C94.1068 19.7414 94.6871 18.6215 95.8201 18.6215C96.9531 18.6215 97.5247 19.7501 97.5247 21.9741C97.5247 24.198 96.9357 25.3876 95.8201 25.3876ZM70.0045 21.0645H66.5707C66.5707 19.2772 67.151 18.3705 68.2796 18.3705C69.4083 18.3705 70.006 19.2757 70.006 21.063L70.0045 21.0645ZM44.1193 21.0645H40.6797C40.6797 19.2772 41.2599 18.3705 42.3901 18.3705C43.5202 18.3705 44.1179 19.2757 44.1193 21.063V21.0645Z" fill="black"></path>
    <path d="M158.4 1.59583H119.206V40.7943H158.4V1.59583Z" stroke="black" stroke-width="0.2"></path>
    <path d="M131.634 27.6928C131.932 27.4401 132.165 27.1208 132.317 26.7609C132.468 26.401 132.532 26.0106 132.504 25.6212V22.7299H128.442V26.6468C128.442 26.9162 128.335 27.1745 128.145 27.3649C127.955 27.5554 127.696 27.6623 127.427 27.6623C127.295 27.6616 127.165 27.6346 127.044 27.5829C126.923 27.5312 126.814 27.4558 126.722 27.3612C126.631 27.2666 126.559 27.1547 126.511 27.032C126.464 26.9094 126.441 26.7784 126.445 26.6468V15.5343C126.441 15.4027 126.463 15.2715 126.511 15.1487C126.558 15.0258 126.63 14.9137 126.721 14.8191C126.813 14.7244 126.923 14.649 127.044 14.5974C127.165 14.5459 127.295 14.5191 127.427 14.5188C127.696 14.5188 127.955 14.6258 128.145 14.8163C128.335 15.0067 128.442 15.265 128.442 15.5343V19.4774H132.494V15.3864C132.494 13.1232 131.012 11.2591 127.389 11.2547C123.68 11.2547 122.274 13.1261 122.274 15.3893V26.995C122.274 27.5239 122.38 28.0474 122.586 28.5343C122.792 29.0213 123.095 29.4617 123.475 29.8294C123.855 30.1971 124.305 30.4845 124.799 30.6744C125.292 30.8644 125.819 30.9531 126.348 30.9352H127.603L131.628 27.687" fill="black"></path>
    <path d="M147.469 28.1498V15.3922H144.667V11.6348H154.796V15.3922H151.983V30.9149H150.782L147.469 28.1498Z" fill="black"></path>
    <path d="M142.234 11.6725H136.585L133.294 26.3712L139.42 21.4475L145.812 26.7818L142.234 11.6725ZM138.331 20.5147L139.42 14.957L140.51 20.5147H138.333" fill="black"></path>
    <path d="M155.581 12.6982C155.58 12.4591 155.65 12.225 155.782 12.0255C155.914 11.8261 156.102 11.6703 156.322 11.5779C156.543 11.4854 156.786 11.4605 157.021 11.5063C157.255 11.552 157.471 11.6663 157.641 11.8348C157.811 12.0033 157.927 12.2183 157.974 12.4527C158.021 12.6871 157.998 12.9303 157.907 13.1515C157.817 13.3727 157.662 13.562 157.464 13.6954C157.265 13.8288 157.032 13.9003 156.792 13.9008C156.634 13.902 156.476 13.8717 156.33 13.8118C156.183 13.7519 156.049 13.6635 155.936 13.5517C155.824 13.4399 155.734 13.3069 155.673 13.1604C155.613 13.014 155.581 12.8569 155.581 12.6982ZM157.785 12.6982C157.785 12.5011 157.727 12.3083 157.618 12.1442C157.509 11.9801 157.354 11.8521 157.172 11.7764C156.99 11.7007 156.789 11.6808 156.596 11.7191C156.403 11.7574 156.225 11.8522 156.086 11.9916C155.946 12.1309 155.852 12.3085 155.813 12.5019C155.775 12.6952 155.795 12.8955 155.871 13.0775C155.946 13.2594 156.074 13.4148 156.238 13.524C156.403 13.6331 156.595 13.6911 156.792 13.6905C156.923 13.6909 157.052 13.6655 157.173 13.6157C157.293 13.566 157.403 13.4929 157.495 13.4007C157.587 13.3085 157.66 13.1989 157.71 13.0784C157.76 12.9578 157.785 12.8286 157.785 12.6982ZM156.54 12.778V13.3916H156.318V11.9772H156.775C157.035 11.9772 157.306 12.0483 157.306 12.3645C157.307 12.4459 157.278 12.5248 157.224 12.5861C157.171 12.6473 157.097 12.6868 157.016 12.6967V12.7055C157.21 12.7388 157.236 12.8259 157.26 12.9796C157.273 13.119 157.299 13.2569 157.336 13.3916H157.059C157.042 13.3089 157.02 13.2176 157.012 13.1349C157.014 13.0288 156.986 12.9243 156.929 12.8346C156.9 12.8118 156.867 12.795 156.832 12.7853C156.796 12.7755 156.759 12.7731 156.723 12.778H156.54ZM156.774 12.5546C156.98 12.5546 157.032 12.4632 157.032 12.3544C157.032 12.2456 156.98 12.1933 156.801 12.1933H156.54V12.5531L156.774 12.5546Z" fill="black"></path>
    <path fill-rule="evenodd" clip-rule="evenodd" d="M149.652 30.9106H128.846L139.397 22.5443L149.652 30.9106Z" fill="black"></path>
  </g>
  <defs>
    <clipPath id="clip0_13_9">
      <rect width="160" height="50.7738" fill="white"></rect>
    </clipPath>
  </defs>
</svg>
