<?xml version="1.0" encoding="UTF-8"?>
<svg xmlns="http://www.w3.org/2000/svg" width="132" height="47" viewBox="0 0 132 47" fill="none">
  <g clip-path="url(#clip0_17_44)">
    <path d="M35.8167 28.4096H26.5949V37.4374V37.4714V37.6263C26.6066 39.4324 27.1521 41.1947 28.1626 42.6916C29.1732 44.1885 30.6039 45.3532 32.2746 46.0393C33.9454 46.7253 35.7817 46.9021 37.5526 46.5473C39.3235 46.1925 40.95 45.3221 42.2276 44.0454C43.5051 42.7687 44.3767 41.1428 44.7327 39.3721C45.0887 37.6014 44.9132 35.765 44.2283 34.0938C43.5434 32.4226 42.3797 30.9911 40.8834 29.9795C39.3872 28.9679 37.6253 28.4213 35.8192 28.4083" fill="black"></path>
    <path d="M23.8333 33.1332C23.4555 33.1684 23.0777 33.1899 22.6873 33.1899C16.3254 33.1899 11.9431 27.9008 11.9431 21.8474V21.7215C11.9431 15.6605 16.2045 10.4974 22.569 10.4974C28.9913 10.4974 33.3712 15.7777 33.3712 21.8411V21.9595C33.3705 23.2078 33.1811 24.4488 32.8095 25.6404H35.7525C38.8488 25.6406 41.8227 26.8502 44.0399 29.0115C44.8472 26.7072 45.2585 24.2828 45.2564 21.8411V21.7152C45.2564 9.65121 35.6543 -0.0125732 22.6886 -0.0125732C9.72299 -0.0125732 0.00128174 9.76959 0.00128174 21.8348V21.9532C0.00128174 34.0185 9.60588 43.6797 22.5703 43.6797C23.5315 43.6776 24.4917 43.6208 25.4465 43.5097C24.3913 41.7024 23.8351 39.6473 23.8346 37.5546L23.8333 33.1332Z" fill="black"></path>
    <path d="M66.2197 31.6599L64.6557 30.2583C63.3936 31.0637 61.9254 31.4867 60.4283 31.476C59.448 31.5097 58.4711 31.3453 57.556 30.9924C56.6408 30.6396 55.8064 30.1056 55.1025 29.4226C54.3986 28.7395 53.8399 27.9214 53.4597 27.0173C53.0796 26.1132 52.8859 25.1416 52.8902 24.1608V24.1205C52.9468 22.1566 53.7654 20.2919 55.1727 18.9209C56.58 17.55 58.4655 16.7805 60.4302 16.7752C62.3949 16.77 64.2844 17.5295 65.699 18.8929C67.1136 20.2563 67.9421 22.1167 68.0092 24.0802V24.1205C68.0124 25.5782 67.5733 27.0027 66.7499 28.2056L68.212 29.4448L66.2197 31.6599ZM64.7389 24.1205C64.7586 23.5415 64.6618 22.9645 64.4542 22.4237C64.2466 21.8829 63.9324 21.3894 63.5303 20.9724C63.1282 20.5554 62.6464 20.2234 62.1135 19.9963C61.5806 19.7691 61.0075 19.6514 60.4283 19.65C59.8533 19.6476 59.2839 19.7619 58.7543 19.9857C58.2247 20.2096 57.7461 20.5385 57.3472 20.9526C56.9483 21.3667 56.6375 21.8573 56.4336 22.3949C56.2296 22.9324 56.1367 23.5057 56.1606 24.0802V24.1205C56.1408 24.6995 56.2376 25.2766 56.4452 25.8174C56.6528 26.3583 56.967 26.8519 57.369 27.269C57.7711 27.6861 58.2529 28.0182 58.7857 28.2455C59.3186 28.4728 59.8917 28.5907 60.4711 28.5922C61.1134 28.5958 61.7493 28.4641 62.3373 28.2056L62.049 27.9311C60.2293 26.294 62.1825 23.9933 62.1825 23.9933L64.3497 26.1127C64.6172 25.4973 64.75 24.8317 64.7389 24.1608V24.1205Z" fill="black"></path>
    <path d="M79.1087 31.2354L76.0599 26.6818H73.6017V29.6701C73.6004 30.0756 73.4425 30.4648 73.1608 30.7565C72.8792 31.0482 72.4957 31.2198 72.0906 31.2354H70.4736V18.5745C70.4848 18.1629 70.6533 17.7712 70.9445 17.48C71.2357 17.1888 71.6274 17.0203 72.039 17.0092H76.9766C80.3301 17.0092 82.3425 18.7722 82.3425 21.7013V21.7416C82.3873 22.709 82.1131 23.6643 81.5621 24.4606C81.011 25.2569 80.2136 25.8502 79.2925 26.1492L82.7668 31.2304L79.1087 31.2354ZM79.1691 21.8663C79.1691 20.5239 78.2359 19.8325 76.7097 19.8325H73.603V23.9189H76.7714C78.2951 23.9189 79.164 23.1054 79.164 21.9041L79.1691 21.8663Z" fill="black"></path>
    <path d="M91.4534 31.476C90.473 31.5101 89.4957 31.3459 88.5803 30.9932C87.6648 30.6405 86.8301 30.1066 86.1259 29.4235C85.4218 28.7404 84.8628 27.9222 84.4825 27.0179C84.1022 26.1136 83.9084 25.1418 83.9127 24.1608V24.1205C83.9694 22.1566 84.788 20.2919 86.1953 18.9209C87.6026 17.55 89.488 16.7805 91.4527 16.7752C93.4174 16.77 95.307 17.5295 96.7216 18.8929C98.1362 20.2563 98.9647 22.1167 99.0318 24.0802V24.1205C99.0323 25.1055 98.8349 26.0805 98.4514 26.9878C98.0679 27.895 97.506 28.716 96.7992 29.402C96.0924 30.0881 95.255 30.6251 94.3367 30.9814C93.4184 31.3376 92.4379 31.5059 91.4534 31.476ZM95.7614 24.1205C95.7811 23.5418 95.6845 22.965 95.477 22.4243C95.2695 21.8837 94.9556 21.3903 94.5537 20.9733C94.1519 20.5563 93.6705 20.2243 93.1379 19.997C92.6053 19.7697 92.0325 19.6517 91.4534 19.65C90.8784 19.6475 90.3089 19.7615 89.7792 19.9854C89.2496 20.2092 88.7708 20.5381 88.3719 20.9522C87.973 21.3663 87.6621 21.857 87.4582 22.3947C87.2544 22.9323 87.1616 23.5057 87.1856 24.0802V24.1205C87.1655 24.6993 87.262 25.2762 87.4692 25.8169C87.6765 26.3577 87.9903 26.8513 88.392 27.2684C88.7938 27.6855 89.2752 28.0177 89.8078 28.2451C90.3404 28.4725 90.9133 28.5905 91.4924 28.5922C92.0676 28.5946 92.6372 28.4803 93.167 28.2564C93.6968 28.0325 94.1757 27.7035 94.5748 27.2893C94.9739 26.8752 95.285 26.3844 95.4891 25.8467C95.6933 25.309 95.7863 24.7355 95.7627 24.1608L95.7614 24.1205Z" fill="black"></path>
    <path d="M112.305 29.6702V21.9469L108.299 28.023H108.217L104.254 22.0074V31.2354H101.186V18.5808C101.187 18.3716 101.228 18.1644 101.31 17.9715C101.391 17.7786 101.509 17.6038 101.659 17.4573C101.809 17.3109 101.986 17.1957 102.18 17.1186C102.375 17.0414 102.583 17.0038 102.792 17.008H104.555L108.294 23.0211L112.033 17.008H115.406V31.238H113.844C113.639 31.2373 113.437 31.1962 113.249 31.1171C113.06 31.0379 112.889 30.9222 112.746 30.7767C112.602 30.6312 112.489 30.4588 112.412 30.2693C112.336 30.0798 112.297 29.877 112.3 29.6727" fill="black"></path>
    <path d="M128.728 31.2354L127.426 28.0444H121.412C121.412 28.0444 120.946 29.1966 120.513 30.2494C120.402 30.5433 120.203 30.7958 119.944 30.9723C119.684 31.1488 119.376 31.2407 119.062 31.2354H116.921L123.019 16.9072H125.904L132 31.2354H128.728ZM124.422 20.6675L122.533 25.279H126.311L124.422 20.6675Z" fill="black"></path>
  </g>
  <defs>
    <clipPath id="clip0_17_44">
      <rect width="132" height="46.7247" fill="white"></rect>
    </clipPath>
  </defs>
</svg>
