<svg xmlns="http://www.w3.org/2000/svg" viewBox="0 0 65.45 19.05" width="65.45" height="19.05"><path d="M51.06.49h2.31V8.33h3.47L62.5.49h2.7L58.9,9.23l6.55,9.25H62.62l-5.65-8h-3.6v8H51.06Z" fill="#000"></path><rect x="34.45" y="0.49" width="13.22" height="2.18" fill="#000"></rect><rect x="34.45" y="16.3" width="13.22" height="2.18" fill="#000"></rect><rect x="34.45" y="8.33" width="9.91" height="2.18" fill="#000"></rect><rect x="17.55" y="0.49" width="13.22" height="2.18" fill="#000"></rect><rect x="17.55" y="16.3" width="13.22" height="2.18" fill="#000"></rect><rect x="17.55" y="8.33" width="9.91" height="2.18" fill="#000"></rect><path d="M2.31,13.38a4.58,4.58,0,0,0,.93,1.74,5.14,5.14,0,0,0,4.21,1.73c3.08,0,4.5-1.42,4.5-3.09,0-1.33-1.11-2-4-2.93C3.68,9.45.77,8.74.77,5.11.77,2.41,3.21,0,7.2,0A6.86,6.86,0,0,1,13,2.53,6.62,6.62,0,0,1,14.13,5H11.82A3.89,3.89,0,0,0,11,3.61,5.06,5.06,0,0,0,7.2,2.2c-2.7,0-4.12,1.41-4.12,3,0,2,2.43,2.44,5.43,3.47,4.4,1.52,5.75,2.23,5.75,5.21,0,2.82-2.44,5.2-6.81,5.2A7.07,7.07,0,0,1,0,13.37Z" fill="#000"></path></svg>