<svg xmlns="http://www.w3.org/2000/svg" viewBox="0 0 553 421" width="553" height="421" preserveAspectRatio="xMidYMid meet" style="width: 100%; height: 100%; transform: translate3d(0px, 0px, 0px);"><defs><clipPath id="__lottie_element_2"><rect width="553" height="421" x="0" y="0"></rect></clipPath><clipPath id="__lottie_element_4"><path d="M0,0 L553,0 L553,421 L0,421z"></path></clipPath></defs><g clip-path="url(#__lottie_element_2)"><g clip-path="url(#__lottie_element_4)" transform="matrix(1.5800000429153442,0,0,1.5800000429153442,-160.37002563476562,-122.08999633789062)" opacity="1" style="display: block;"><g transform="matrix(1,0,0,1,0,0)" opacity="1" style="display: block;"><g opacity="1" transform="matrix(1,0,0,1,395.5,210.281005859375)"><path fill="rgb(255,255,255)" fill-opacity="1" d=" M-33.590999603271484,-41.987998962402344 C-33.590999603271484,-41.987998962402344 -22.79400062561035,-41.987998962402344 -22.79400062561035,-41.987998962402344 C-22.79400062561035,-41.987998962402344 -22.79400062561035,-5.3979997634887695 -22.79400062561035,-5.3979997634887695 C-22.79400062561035,-5.3979997634887695 -6.598999977111816,-5.3979997634887695 -6.598999977111816,-5.3979997634887695 C-6.598999977111816,-5.3979997634887695 19.79400062561035,-41.987998962402344 19.79400062561035,-41.987998962402344 C19.79400062561035,-41.987998962402344 32.388999938964844,-41.987998962402344 32.388999938964844,-41.987998962402344 C32.388999938964844,-41.987998962402344 2.999000072479248,-1.2000000476837158 2.999000072479248,-1.2000000476837158 C2.999000072479248,-1.2000000476837158 33.590999603271484,41.987998962402344 33.590999603271484,41.987998962402344 C33.590999603271484,41.987998962402344 20.392000198364258,41.987998962402344 20.392000198364258,41.987998962402344 C20.392000198364258,41.987998962402344 -5.999000072479248,4.798999786376953 -5.999000072479248,4.798999786376953 C-5.999000072479248,4.798999786376953 -22.79400062561035,4.798999786376953 -22.79400062561035,4.798999786376953 C-22.79400062561035,4.798999786376953 -22.79400062561035,41.987998962402344 -22.79400062561035,41.987998962402344 C-22.79400062561035,41.987998962402344 -33.590999603271484,41.987998962402344 -33.590999603271484,41.987998962402344 C-33.590999603271484,41.987998962402344 -33.590999603271484,-41.987998962402344 -33.590999603271484,-41.987998962402344z"></path></g><g opacity="1" transform="matrix(1,0,0,1,156.81199645996094,210.43299865722656)"><path fill="rgb(255,255,255)" fill-opacity="1" d=" M-22.493000030517578,17.993000030517578 C-21.65399932861328,20.992000579833984 -20.21500015258789,23.753000259399414 -18.176000595092773,26.150999069213867 C-14.696000099182129,30.35099983215332 -8.699000358581543,34.18899917602539 1.4989999532699585,34.18899917602539 C15.895000457763672,34.18899917602539 22.493000030517578,27.593000411987305 22.493000030517578,19.795000076293945 C22.493000030517578,13.583000183105469 17.302000045776367,10.401000022888184 4,6.120999813079834 C-16.099000930786133,-0.3499999940395355 -29.69300079345703,-3.6589999198913574 -29.69300079345703,-20.621999740600586 C-29.69300079345703,-33.21699905395508 -18.29599952697754,-44.387001037597656 0.29899999499320984,-44.387001037597656 C14.454999923706055,-44.387001037597656 22.613000869750977,-38.5099983215332 27.17099952697754,-32.63199996948242 C29.809999465942383,-29.152999877929688 31.610000610351562,-25.31399917602539 32.689998626708984,-20.993000030517578 C32.689998626708984,-20.993000030517578 21.89299964904785,-20.993000030517578 21.89299964904785,-20.993000030517578 C21.17300033569336,-23.393999099731445 19.85300064086914,-25.55299949645996 18.054000854492188,-27.591999053955078 C14.8149995803833,-30.83300018310547 9.53600025177002,-34.191001892089844 0.29899999499320984,-34.191001892089844 C-12.29699993133545,-34.191001892089844 -18.895999908447266,-27.591999053955078 -18.895999908447266,-20.395999908447266 C-18.895999908447266,-11.277000427246094 -7.590000152587891,-9.029999732971191 6.427000045776367,-4.209000110626221 C26.979000091552734,2.86299991607666 33.290000915527344,6.204999923706055 33.290000915527344,20.097000122070312 C33.290000915527344,33.292999267578125 21.89299964904785,44.38800048828125 1.4989999532699585,44.38800048828125 C-13.737000465393066,44.38800048828125 -22.61400032043457,37.790000915527344 -27.41200065612793,31.190000534057617 C-30.29199981689453,27.35099983215332 -32.21200180053711,22.91200065612793 -33.29100036621094,17.993000030517578 C-33.29100036621094,17.993000030517578 -22.493000030517578,17.993000030517578 -22.493000030517578,17.993000030517578z"></path></g></g><g transform="matrix(1,0,0,1,355.25,284.25)" opacity="1" style="display: block;"><g opacity="1" transform="matrix(1,0,0,1,-40.1879997253418,-37.125)"><path fill="rgb(255,255,255)" fill-opacity="1" d=" M31.0625,-5.25 C31.0625,-5.25 31.0625,5.25 31.0625,5.25 C31.0625,5.25 -31.0625,5.25 -31.0625,5.25 C-31.0625,5.25 -31.0625,-5.25 -31.0625,-5.25 C-31.0625,-5.25 31.0625,-5.25 31.0625,-5.25z"></path></g></g><g transform="matrix(0.75,0,0,1,337.437744140625,247)" opacity="1" style="display: block;"><g opacity="1" transform="matrix(1,0,0,1,-40.1879997253418,-37.125)"><path fill="rgb(255,255,255)" fill-opacity="1" d=" M31.0625,-5.25 C31.0625,-5.25 31.0625,5.25 31.0625,5.25 C31.0625,5.25 -31.0625,5.25 -31.0625,5.25 C-31.0625,5.25 -31.0625,-5.25 -31.0625,-5.25 C-31.0625,-5.25 31.0625,-5.25 31.0625,-5.25z"></path></g></g><g transform="matrix(1,0,0,1,355.25,210.5)" opacity="1" style="display: block;"><g opacity="1" transform="matrix(1,0,0,1,-40.1879997253418,-37.125)"><path fill="rgb(255,255,255)" fill-opacity="1" d=" M31.0625,-5.25 C31.0625,-5.25 31.0625,5.25 31.0625,5.25 C31.0625,5.25 -31.0625,5.25 -31.0625,5.25 C-31.0625,5.25 -31.0625,-5.25 -31.0625,-5.25 C-31.0625,-5.25 31.0625,-5.25 31.0625,-5.25z"></path></g></g><g transform="matrix(1,0,0,1,276.5,284.25)" opacity="1" style="display: block;"><g opacity="1" transform="matrix(1,0,0,1,-40.1879997253418,-37.125)"><path fill="rgb(255,255,255)" fill-opacity="1" d=" M31.0625,-5.25 C31.0625,-5.25 31.0625,5.25 31.0625,5.25 C31.0625,5.25 -31.0625,5.25 -31.0625,5.25 C-31.0625,5.25 -31.0625,-5.25 -31.0625,-5.25 C-31.0625,-5.25 31.0625,-5.25 31.0625,-5.25z"></path></g></g><g transform="matrix(0.75,0,0,1,258.687744140625,247)" opacity="1" style="display: block;"><g opacity="1" transform="matrix(1,0,0,1,-40.1879997253418,-37.125)"><path fill="rgb(255,255,255)" fill-opacity="1" d=" M31.0625,-5.25 C31.0625,-5.25 31.0625,5.25 31.0625,5.25 C31.0625,5.25 -31.0625,5.25 -31.0625,5.25 C-31.0625,5.25 -31.0625,-5.25 -31.0625,-5.25 C-31.0625,-5.25 31.0625,-5.25 31.0625,-5.25z"></path></g></g><g transform="matrix(1,0,0,1,276.5,210.5)" opacity="1" style="display: block;"><g opacity="1" transform="matrix(1,0,0,1,-40.1879997253418,-37.125)"><path fill="rgb(255,255,255)" fill-opacity="1" d=" M31.0625,-5.25 C31.0625,-5.25 31.0625,5.25 31.0625,5.25 C31.0625,5.25 -31.0625,5.25 -31.0625,5.25 C-31.0625,5.25 -31.0625,-5.25 -31.0625,-5.25 C-31.0625,-5.25 31.0625,-5.25 31.0625,-5.25z"></path></g></g></g></g></svg>